<svg xmlns="http://www.w3.org/2000/svg" width="1000" height="563" viewBox="0 0 1000 563"><defs><linearGradient id="bg" x1="0" y1="0" x2="1" y2="1"><stop stop-color="#07111f"/><stop offset="1" stop-color="#1e3a4f"/></linearGradient><radialGradient id="lamp"><stop stop-color="#fff"/><stop offset="1" stop-color="#b7d9e8"/></radialGradient></defs><rect width="1000" height="563" fill="url(#bg)"/><g opacity=".9"><rect x="30" y="50" width="270" height="180" rx="16" fill="#111827" stroke="#475569"/><circle cx="165" cy="142" r="64" fill="#e2e8f0"/><circle cx="165" cy="142" r="42" fill="#0f172a"/></g><g><ellipse cx="680" cy="285" rx="185" ry="235" fill="#111827"/><circle cx="680" cy="155" r="92" fill="#f1c7a9"/><path d="M590 140q25-105 115-65 58 12 68 70-63-31-183-5z" fill="#111827"/><path d="M565 250q115-48 230 0l60 250H505z" fill="#0b0f14"/><path d="M604 270h152" stroke="#d6a85c" stroke-width="9"/><circle cx="704" cy="319" r="16" fill="#eabf72"/><path d="M510 405q-115-40-205 50" stroke="#f1c7a9" stroke-width="55" stroke-linecap="round"/><path d="M775 400q90 18 150 95" stroke="#f1c7a9" stroke-width="55" stroke-linecap="round"/></g><g><rect x="250" y="405" width="420" height="48" rx="10" fill="#0f172a" stroke="#64748b"/><rect x="350" y="382" width="220" height="38" rx="8" fill="#334155"/><path d="M440 365l120-75" stroke="#d8a35e" stroke-width="12" stroke-linecap="round"/><circle cx="440" cy="365" r="18" fill="#e2e8f0"/><path d="M170 455h630" stroke="#94a3b8" stroke-width="8"/></g><text x="500" y="535" text-anchor="middle" font-family="Segoe UI,Arial" font-size="30" fill="#e2e8f0" font-weight="700">APPLE SEED • BOARD REPAIR</text></svg>