<svg xmlns="http://www.w3.org/2000/svg" viewBox="0 0 600 700"><defs><linearGradient id="a" x1="0" y1="0" x2="1" y2="1"><stop stop-color="#fff"/><stop offset=".42" stop-color="#b8d6d2"/><stop offset="1" stop-color="#172c2b"/></linearGradient><radialGradient id="g"><stop stop-color="#dffff8"/><stop offset=".25" stop-color="#20ffd0"/><stop offset="1" stop-color="#08745f"/></radialGradient><filter id="gl"><feGaussianBlur stdDeviation="7" result="b"/><feMerge><feMergeNode in="b"/><feMergeNode in="SourceGraphic"/></feMerge></filter></defs><ellipse cx="300" cy="670" rx="180" ry="18" fill="#13ffd0" opacity=".2"/><g stroke="#50ffe0" stroke-width="6" stroke-linejoin="round"><path fill="#101d1d" d="M225 82L190 125l18 95 92 24 92-24 18-95-35-43-75-18z"/><path fill="#0a1515" d="M232 118l25-28h86l25 28-15 70h-106z"/><path fill="#54ffe2" d="M255 137l45-18 45 18-45 18z" filter="url(#gl)"/><path fill="url(#a)" d="M205 235l-120 105-35 120 60 8 95-82 30-62z"/><path fill="url(#a)" d="M395 235l120 105 35 120-60 8-95-82-30-62z"/><path fill="#0a1717" d="M78 420l-62 48 30 55 75-10 10-60z"/><path fill="#0a1717" d="M522 420l62 48-30 55-75-10-10-60z"/><path fill="url(#a)" d="M198 220h204l50 115-35 190H183l-35-190z"/><path fill="#0b1d1b" d="M205 270h190l25 65H180z"/><circle cx="300" cy="390" r="72" fill="url(#g)" filter="url(#gl)"/><circle cx="300" cy="390" r="45" fill="#061b18"/><text x="300" y="407" fill="#9bffed" stroke="none" text-anchor="middle" font-family="Arial" font-weight="900" font-size="48">AI</text><path fill="url(#a)" d="M185 505l100 20-5 105-78 35-48-65z"/><path fill="url(#a)" d="M415 505l-100 20 5 105 78 35 48-65z"/><path fill="#0a1717" d="M154 600l73 25-18 65-92 0z"/><path fill="#0a1717" d="M446 600l-73 25 18 65 92 0z"/></g><g fill="#53ffe0" opacity=".9"><circle cx="108" cy="120" r="5"/><circle cx="492" cy="145" r="4"/><circle cx="130" cy="220" r="3"/></g></svg>